<svg xmlns="http://www.w3.org/2000/svg" width="512" height="512" style="" viewBox="0 0 512 512" data-svgdocument="" id="_c1G4TamGfGPUK72BBczCB" class="fl-svgdocument" x="0" y="0" xmlns:xlink="http://www.w3.org/1999/xlink"><defs id="_STnhNoVhiBT2PAP_3aMkH" transform="matrix(0.9501743811330382, 0, 0, 0.9501743811330382, -36.28760970271876, 99.9210730213973)"/><path text="COMPANY" text-anchor="middle" font-size="100" letter-spacing="0" side="left" offset="0.5" dx="0" dy="0" space="preserve" href="" font-family="Lilita One" font-scale="contain" transform="matrix(0.9086517400081217, 0, 0, 0.9086517400081217, 253.90048983181046, 319.41844523004295)" x="0" y="0" fill="#222630" data-fl-textpath="" id="_a-0vYUPOqmqLfqlO-t7SH" d="M-196.00000000000003-70.9Q-188.70000000000002-70.9 -183.15000000000003-68.85Q-177.60000000000002-66.8 -177.60000000000002-63.3Q-177.60000000000002-59.8 -180.25000000000003-54.65Q-182.90000000000003-49.5 -184.70000000000002-49.5L-184.70000000000002-49.5Q-185.20000000000002-49.5 -185.85000000000002-50.05Q-186.50000000000003-50.6 -188.85000000000002-51.25Q-191.20000000000002-51.9 -192.90000000000003-51.9L-192.90000000000003-51.9Q-198.70000000000002-51.9 -202.25000000000003-47.8Q-205.8-43.7 -205.8-35.25Q-205.8-26.8 -202.15000000000003-22.7Q-198.50000000000003-18.6 -192.90000000000003-18.6L-192.90000000000003-18.6Q-190.60000000000002-18.6 -187.75000000000003-19.25Q-184.90000000000003-19.9 -183.70000000000002-21.1L-183.70000000000002-21.1Q-183.50000000000003-21.3 -182.90000000000003-21.3Q-182.3-21.3 -180.65000000000003-19.05Q-179.00000000000003-16.8 -177.60000000000002-13.15Q-176.20000000000002-9.5 -176.20000000000002-7.5L-176.20000000000002-7.5Q-176.20000000000002-3.6 -182.20000000000002-1.3Q-188.20000000000002 1 -196.40000000000003 1L-196.40000000000003 1Q-209.60000000000002 1 -218.10000000000002-8.3Q-226.60000000000002-17.6 -226.60000000000002-34.55Q-226.60000000000002-51.5 -217.85000000000002-61.2Q-209.10000000000002-70.9 -196.00000000000003-70.9L-196.00000000000003-70.9ZM-138.75000000000003 1Q-152.80000000000004 1 -161.65000000000003-8.2Q-170.50000000000003-17.4 -170.50000000000003-35.05Q-170.50000000000003-52.7 -161.55000000000004-61.8Q-152.60000000000002-70.9 -138.45000000000005-70.9Q-124.30000000000003-70.9 -115.60000000000002-61.95Q-106.90000000000003-53 -106.90000000000003-34.85Q-106.90000000000003-16.7 -115.80000000000003-7.85Q-124.70000000000003 1 -138.75000000000003 1ZM-138.70000000000005-51.7Q-143.50000000000003-51.7 -146.75000000000003-47.3Q-150.00000000000003-42.9 -150.00000000000003-34.95Q-150.00000000000003-27 -146.90000000000003-22.75Q-143.80000000000004-18.5 -138.75000000000003-18.5Q-133.70000000000005-18.5 -130.55-22.8Q-127.40000000000003-27.1 -127.40000000000003-35.1Q-127.40000000000003-43.1 -130.65000000000003-47.4Q-133.90000000000003-51.7 -138.70000000000005-51.7ZM-28.90000000000002 0.1L-28.90000000000002 0.1Q-37.800000000000026 0.1 -37.800000000000026-1.9L-37.800000000000026-1.9L-39.90000000000002-42L-52.10000000000002-1.4Q-52.50000000000002-0.2 -58.90000000000002-0.2Q-65.30000000000001-0.2 -65.50000000000003-1.3L-65.50000000000003-1.3L-78.10000000000002-42.4L-79.50000000000003-2.5Q-79.60000000000002-1 -83.30000000000001-0.45Q-87.00000000000003 0.1 -89.45000000000002 0.1Q-91.90000000000002 0.1 -94.20000000000002-0.2L-94.20000000000002-0.2Q-99.00000000000001-0.9 -98.90000000000002-2.7L-98.90000000000002-2.7L-96.60000000000002-67.7Q-96.60000000000002-70.1 -84.40000000000002-70.1L-84.40000000000002-70.1Q-80.80000000000001-70.1 -75.60000000000002-69.55Q-70.40000000000002-69 -69.80000000000001-67.4L-69.80000000000001-67.4L-58.60000000000002-35.9L-48.80000000000002-67.5Q-47.90000000000002-70.1 -35.000000000000014-70.1L-35.000000000000014-70.1Q-31.300000000000026-70.1 -26.15000000000002-69.55Q-21.000000000000014-69 -21.000000000000014-67.6L-21.000000000000014-67.6L-18.100000000000023-2Q-18.100000000000023-0.9 -22.000000000000014-0.4Q-25.90000000000002 0.1 -28.90000000000002 0.1ZM 0.49999999999998224 0.2L 0.49999999999998224 0.2Q-8.600000000000017 0.2 -8.600000000000017-1.8L-8.600000000000017-1.8L-8.600000000000017-66.6Q-8.600000000000017-70 -5.500000000000017-70L-5.500000000000017-70L 12.099999999999984-70Q 26.899999999999984-70  33.44999999999998-63.9Q 39.999999999999986-57.8  39.999999999999986-46.2L 39.999999999999986-46.2Q 39.999999999999986-36.6  33.79999999999998-28.6L 33.79999999999998-28.6Q 30.69999999999998-24.6  24.69999999999998-22.2Q 18.69999999999998-19.8  10.699999999999982-19.8L 10.699999999999982-19.8L 10.699999999999982-1.9Q 10.699999999999982-0.7  6.9499999999999815-0.25Q 3.1999999999999815 0.2  0.49999999999998224 0.2ZM 12.799999999999983-52.6L 10.699999999999982-52.6L 10.699999999999982-36.8L 11.999999999999982-36.8Q 15.499999999999982-36.8  17.899999999999984-39Q 20.299999999999983-41.2  20.299999999999983-45.2Q 20.299999999999983-49.2  18.649999999999984-50.9Q 16.999999999999982-52.6  12.799999999999983-52.6L 12.799999999999983-52.6ZM 89.79999999999998 0.2L 89.79999999999998 0.2Q 81.09999999999998 0.2  80.39999999999998-2.6L 80.39999999999998-2.6L 77.09999999999998-15.5L 61.19999999999998-15.5L 58.29999999999998-3.1Q 57.69999999999998 0  48.69999999999998 0L 48.69999999999998 0Q 43.899999999999984 0  41.59999999999998-0.55Q 39.29999999999998-1.1  39.29999999999998-1.4L 39.29999999999998-1.4L 56.999999999999986-69.1Q 56.999999999999986-69.9  70.69999999999999-69.9Q 84.39999999999998-69.9  84.39999999999998-69.1L 84.39999999999998-69.1L 101.69999999999999-1.3Q 101.69999999999999-0.6  97.09999999999998-0.2Q 92.49999999999999 0.2  89.79999999999998 0.2ZM 69.09999999999998-48.9L 63.69999999999998-28.2L 74.19999999999999-28.2L 69.69999999999999-48.9L 69.09999999999998-48.9ZM 163.09999999999997-68.1L 163.09999999999997-2.2Q 163.09999999999997-0.1  153.7-0.1Q 144.29999999999998-0.1  143.5-1.6L 143.5-1.6L 126.79999999999998-32.8L 126.79999999999998-1.7Q 126.79999999999998 0.1  117.54999999999998 0.1Q 108.29999999999998 0.1  108.29999999999998-1.7L 108.29999999999998-1.7L 108.29999999999998-68.6Q 108.29999999999998-70.1  116.19999999999999-70.1L 116.19999999999999-70.1Q 119.29999999999998-70.1  123.44999999999999-69.55Q 127.59999999999998-69  128.49999999999997-67.5L 128.49999999999997-67.5L 144.5-36.7L 144.5-68.1Q 144.5-70  153.79999999999998-70Q 163.09999999999997-70  163.09999999999997-68.1L 163.09999999999997-68.1ZM 199.49999999999997-46.3L 207.89999999999998-66.7Q 209.19999999999996-70.2  220.69999999999996-70.2L 220.69999999999996-70.2Q 223.59999999999997-70.2  227.54999999999995-69.8Q 231.49999999999997-69.4  231.19999999999996-68.8L 231.19999999999996-68.8L 210.39999999999998-27L 210.39999999999998-2.6Q 210.39999999999998-0.9  204.89999999999998-0.2L 204.89999999999998-0.2Q 202.09999999999997 0.2  199.39999999999998 0.2Q 196.69999999999996 0.2  193.99999999999997-0.1L 193.99999999999997-0.1Q 188.49999999999997-0.8  188.49999999999997-2.6L 188.49999999999997-2.6L 188.49999999999997-26.4L 166.99999999999997-68.6Q 166.59999999999997-69.2  171.09999999999997-69.75Q 175.59999999999997-70.3  178.69999999999996-70.3L 178.69999999999996-70.3Q 190.99999999999997-70.3  192.19999999999996-66.7L 192.19999999999996-66.7L 199.49999999999997-46.3Z"/><path id="_mBX__mh0zoyEiQ_yAVsr2" d="M133.371,106.913c7.43,0,13.475-6.034,13.475-13.451s-6.045-13.451-13.475-13.451c-7.432,0-13.477,6.034-13.477,13.451   S125.939,106.913,133.371,106.913z M133.371,88.011c3.02,0,5.475,2.445,5.475,5.451s-2.455,5.451-5.475,5.451   s-5.477-2.445-5.477-5.451S130.352,88.011,133.371,88.011z" stroke="none" fill="#c93434" transform="matrix(1.1752706664336883, 0, 0, 1.1752706664336883, 138.01050613606037, 48.29876166067851)"/><path id="_xWDLnvc_gwjeZp4ZdmT1J" d="M67.518,106.913c2.209,0,4-1.791,4-4v-5.451h5.451c2.209,0,4-1.791,4-4s-1.791-4-4-4h-5.451v-5.451c0-2.209-1.791-4-4-4   s-4,1.791-4,4v5.451h-5.451c-2.209,0-4,1.791-4,4s1.791,4,4,4h5.451v5.451C63.518,105.122,65.309,106.913,67.518,106.913z" stroke="none" fill="#34c972" transform="matrix(1.1752706664336883, 0, 0, 1.1752706664336883, 137.80565162738452, 48.29876166067851)"/><g id="_4ZzgsYQZr4bvKMO1WkQs8" transform="matrix(0.8125000805266263, 0, 0, 0.8125000805266263, 48.6264283113208, 47.99997655738335)"><path id="_rdmd1rRy1fuR4zHagtV1Q" d="M106.717,112.697H91.283c-8.525,0-16.039,5.154-19.143,13.132l-4.645,11.938c-1.15,2.961-3.932,4.873-7.084,4.873h-8.764   c-4.217,0-7.648-3.508-7.648-7.817V72.975c0-4.311,3.432-7.817,7.648-7.817h13.375c1.281,0,2.555,0.422,3.584,1.188l8.99,6.694   c1.771,1.319,4.277,0.952,5.598-0.819c1.318-1.771,0.951-4.277-0.82-5.597l-8.99-6.695c-2.4-1.786-5.371-2.771-8.361-2.771H51.648   C43.02,57.157,36,64.253,36,72.975v61.849c0,8.722,7.02,15.817,15.648,15.817h8.764c6.479,0,12.186-3.916,14.541-9.973   l4.645-11.938c1.896-4.88,6.484-8.032,11.686-8.032h15.434c2.209,0,4-1.791,4-4S108.926,112.697,106.717,112.697z" stroke="none" fill="#222630" transform="matrix(1.4464868307113647, 0, 0, 1.4464868307113647, 109.8561782836914, -0.568669855594635)"/><path id="_4WCmfLhPXWw7N56Q8mAM7" d="M148.354,57.157h-13.377c-2.99,0-5.961,0.984-8.361,2.771l-6.33,4.714c-1.029,0.767-2.303,1.188-3.584,1.188H104V53.359   c0-2.209-1.791-4-4-4s-4,1.791-4,4v16.472c0,2.209,1.791,4,4,4h16.701c2.99,0,5.961-0.984,8.361-2.771l6.33-4.714   c1.029-0.767,2.303-1.188,3.584-1.188h13.377c4.217,0,7.646,3.507,7.646,7.817v61.849c0,4.31-3.43,7.817-7.646,7.817h-8.766   c-3.152,0-5.934-1.912-7.084-4.875l-4.645-11.937c-0.803-2.059-3.121-3.076-5.18-2.277c-2.059,0.801-3.078,3.119-2.277,5.178   l4.645,11.937c2.355,6.059,8.063,9.975,14.541,9.975h8.766c8.627,0,15.646-7.096,15.646-15.817V72.975   C164,64.253,156.98,57.157,148.354,57.157z" stroke="none" fill="#222630" transform="matrix(1.4464868307113647, 0, 0, 1.4464868307113647, 109.13370513916016, 0.5868387222290039)"/></g><path id="_jGMfb2lnNgtgphSEoVQl_" fill="#222630" transform="matrix(0.9086517400081217, 0, 0, 0.9086517400081217, 250.57616489448856, 405.33130317110874)" text="NAME" text-anchor="middle" font-size="100" letter-spacing="0" side="left" offset="0.5" dx="0" dy="0" space="preserve" href="" font-family="Lilita One" font-scale="contain" x="0" y="0" data-fl-textpath="" d="M-75.35000000000001-68.1L-75.35000000000001-2.2Q-75.35000000000001-0.1 -84.75-0.1Q-94.15-0.1 -94.95-1.6L-94.95-1.6L-111.65-32.8L-111.65-1.7Q-111.65 0.1 -120.9 0.1Q-130.15 0.1 -130.15-1.7L-130.15-1.7L-130.15-68.6Q-130.15-70.1 -122.25-70.1L-122.25-70.1Q-119.15-70.1 -115-69.55Q-110.85000000000001-69 -109.95-67.5L-109.95-67.5L-93.95-36.7L-93.95-68.1Q-93.95-70 -84.65-70Q-75.35000000000001-70 -75.35000000000001-68.1L-75.35000000000001-68.1ZM-18.35000000000001 0.2L-18.35000000000001 0.2Q-27.05000000000001 0.2 -27.750000000000007-2.6L-27.750000000000007-2.6L-31.05000000000001-15.5L-46.95000000000001-15.5L-49.85000000000001-3.1Q-50.45000000000001 0 -59.45000000000001 0L-59.45000000000001 0Q-64.25000000000001 0 -66.55000000000001-0.55Q-68.85000000000001-1.1 -68.85000000000001-1.4L-68.85000000000001-1.4L-51.150000000000006-69.1Q-51.150000000000006-69.9 -37.45000000000001-69.9Q-23.750000000000007-69.9 -23.750000000000007-69.1L-23.750000000000007-69.1L-6.45000000000001-1.3Q-6.45000000000001-0.6 -11.050000000000011-0.2Q-15.650000000000006 0.2 -18.35000000000001 0.2ZM-39.05000000000001-48.9L-44.45000000000001-28.2L-33.95000000000001-28.2L-38.45000000000001-48.9L-39.05000000000001-48.9ZM 70.14999999999999 0.1L 70.14999999999999 0.1Q 61.249999999999986 0.1  61.249999999999986-1.9L 61.249999999999986-1.9L 59.14999999999999-42L 46.94999999999999-1.4Q 46.54999999999999-0.2  40.14999999999999-0.2Q 33.74999999999999-0.2  33.54999999999999-1.3L 33.54999999999999-1.3L 20.949999999999992-42.4L 19.54999999999999-2.5Q 19.449999999999992-1  15.749999999999993-0.45Q 12.04999999999999 0.1  9.59999999999999 0.1Q 7.1499999999999915 0.1  4.849999999999991-0.2L 4.849999999999991-0.2Q 0.04999999999999183-0.9  0.14999999999999147-2.7L 0.14999999999999147-2.7L 2.4499999999999913-67.7Q 2.4499999999999913-70.1  14.649999999999991-70.1L 14.649999999999991-70.1Q 18.249999999999993-70.1  23.449999999999992-69.55Q 28.64999999999999-69  29.249999999999993-67.4L 29.249999999999993-67.4L 40.44999999999999-35.9L 50.24999999999999-67.5Q 51.14999999999999-70.1  64.05-70.1L 64.05-70.1Q 67.74999999999999-70.1  72.89999999999999-69.55Q 78.05-69  78.05-67.6L 78.05-67.6L 80.94999999999999-2Q 80.94999999999999-0.9  77.05-0.4Q 73.14999999999999 0.1  70.14999999999999 0.1ZM 110.44999999999999-42.2L 123.35-42.2Q 125.25-42.2  125.25-35.2L 125.25-35.2Q 125.25-33.1  124.8-30.25Q 124.35-27.4  123.14999999999999-27.4L 123.14999999999999-27.4L 110.44999999999999-27.4L 110.44999999999999-17.4L 128.85-17.4Q 130.55-17.4  131.14999999999998-13L 131.14999999999998-13Q 131.45-11.1  131.45-8.95Q 131.45-6.8  130.85-3.4Q 130.25 0  128.85 0L 128.85 0L 94.64999999999999 0Q 90.85 0  90.85-3.1L 90.85-3.1L 90.85-67.4Q 90.85-70  93.14999999999999-70L 93.14999999999999-70L 128.95-70Q 131.05-70  131.05-61.15Q 131.05-52.3  128.95-52.3L 128.95-52.3L 110.44999999999999-52.3L 110.44999999999999-42.2Z"/></svg>